SplineFontDB: 3.0
FontName: AyannaNarrowTamil-ExtraBold
FullName: AyannaNarrow
FamilyName: AyannaNarrow
OS2FamilyName: "ayanna-tamil tamil"
OS2StyleName: "regular"
Weight: ExtraBold
Copyright: Licensed under the SIL Open Font License 1.1 (see file OFL.txt)
Version: 2.5.0
ItalicAngle: 0
UnderlinePosition: -122.07
UnderlineWidth: 0
Ascent: 800
Descent: 200
InvalidEm: 0
UFOAscent: 799.805
UFODescent: -200.195
LayerCount: 2
Layer: 0 0 "Back" 1
Layer: 1 0 "Fore" 0
FSType: 0
OS2Version: 0
OS2_WeightWidthSlopeOnly: 0
OS2_UseTypoMetrics: 0
CreationTime: 1440916200
ModificationTime: 1443276880
PfmFamily: 16
TTFWeight: 400
TTFWidth: 5
LineGap: 0
VLineGap: 0
Panose: 2 0 6 0 0 0 0 0 0 0
OS2TypoAscent: 800
OS2TypoAOffset: 0
OS2TypoDescent: -200
OS2TypoDOffset: 0
OS2TypoLinegap: 0
OS2WinAscent: 522
OS2WinAOffset: 0
OS2WinDescent: 216
OS2WinDOffset: 0
HheadAscent: 528
HheadAOffset: 0
HheadDescent: -232
HheadDOffset: 0
OS2SubXSize: 841
OS2SubYSize: 780
OS2SubXOff: 0
OS2SubYOff: 240
OS2SupXSize: 841
OS2SupYSize: 780
OS2SupXOff: 0
OS2SupYOff: 601
OS2StrikeYSize: 60
OS2StrikeYPos: 300
OS2CapHeight: 0
OS2XHeight: 0
OS2Vendor: 'ACE '
OS2CodePages: 00000001.00000000
OS2UnicodeRanges: 80108003.00002042.00000000.00000000
Lookup: 260 0 0 "MarktobaseattachmentinTamillook" { "MarktobaseattachmentinTamillook subtable"  } ['abvm' ('taml' <'dflt' > 'DFLT' <'dflt' > ) ]
MarkAttachClasses: 1
DEI: 91125
LangName: 1033 "Licensed under the SIL Open Font License 1.1 (see file OFL.txt)" "" "" "" "" "Version 2.5.0" "" "" "" "" "" "" "" "" "" "" "ayanna-tamil" "tamil"
Encoding: lohit-extended
UnicodeInterp: none
NameList: tamil
DisplaySize: -128
AntiAlias: 1
FitToEm: 1
WinInfo: 0 13 7
BeginPrivate: 3
StemSnapH 13 [34 35 36 64]
StemSnapV 21 [8 10 34 35 36 37 64]
BlueShift 1 0
EndPrivate
Grid
-1000 -146 m 0
 2000 -146 l 1024
  Named: "e_line"
EndSplineSet
AnchorClass2: "tml_virama" "MarktobaseattachmentinTamillook subtable" 
BeginChars: 317 170

StartChar: tml_E
Encoding: 10 2958 0
GlifName: tml_E_
Width: 659
VWidth: 2
GlyphClass: 2
Flags: MW
AnchorPoint: "tml_virama" 422 2 basechar 0
LayerCount: 2
Back
Fore
SplineSet
39 246 m 256
 39 443 132 559 288 560 c 256
 288 462 l 256
 188 462 140 370 140 256 c 256
 140 159 158 75 206 75 c 256
 252 75 260 140 260 179 c 256
 260 240 232 272 206 272 c 256
 167 272 137 222 149 148 c 257
 63 218 l 257
 85 268 115 373 211 373 c 256
 280 373 361 317 361 176 c 256
 361 55 304 -23 206 -23 c 256
 101 -23 39 91 39 246 c 256
279 462 m 257
 281 560 l 257
 634 560 l 257
 634 462 l 257
 531 462 l 257
 531 1 l 257
 424 1 l 257
 424 462 l 257
 279 462 l 257
EndSplineSet
EndChar

StartChar: tml_Ee
Encoding: 11 2959 1
GlifName: tml_E_e
Width: 645
VWidth: 7
GlyphClass: 2
Flags: MW
AnchorPoint: "tml_virama" 306 8 basechar 0
LayerCount: 2
Back
Fore
SplineSet
25 251 m 256
 25 448 118 564 274 565 c 256
 274 467 l 256
 174 467 127 376 127 262 c 256
 127 165 144 80 192 80 c 256
 238 80 246 145 246 184 c 256
 246 245 218 277 192 277 c 256
 153 277 124 227 136 153 c 257
 49 223 l 257
 71 273 101 378 197 378 c 256
 266 378 348 322 348 181 c 256
 348 60 290 -18 192 -18 c 256
 87 -18 25 96 25 251 c 256
182 -158 m 257
 410 56 l 257
 518 6 l 257
 257 -235 l 257
 182 -158 l 257
266 467 m 257
 268 565 l 257
 620 565 l 257
 620 467 l 257
 518 467 l 257
 518 6 l 257
 410 6 l 257
 410 467 l 257
 266 467 l 257
EndSplineSet
PickledDataWithLists: "(dp1
S'com.fontlab.hintData'
p2
(dp3
S'vhints'
p4
(lp5
(dp6
S'position'
p7
I-41
sS'width'
p8
I37
sa(dp9
g7
I208
sg8
I37
sa(dp10
g7
I457
sg8
I36
sasS'hhints'
p11
(lp12
(dp13
g7
I-18
sg8
I36
sa(dp14
g7
I0
sg8
I21
sa(dp15
g7
I232
sg8
I36
sa(dp16
g7
I485
sg8
I35
sass."
EndChar

StartChar: tml_Ii
Encoding: 7 2952 2
GlifName: tml_I_i
Width: 611
VWidth: 1
GlyphClass: 2
Flags: MW
LayerCount: 2
Back
Fore
SplineSet
46 1 m 257
 46 566 l 257
 586 566 l 257
 586 468 l 257
 153 468 l 257
 153 1 l 257
 46 1 l 257
171 285 m 256
 171 255 197 227 229 227 c 256
 259 227 287 255 287 285 c 256
 287 315 259 344 229 344 c 256
 197 344 171 315 171 285 c 256
307 1 m 257
 307 500 l 257
 414 500 l 257
 414 1 l 257
 307 1 l 257
429 285 m 256
 429 255 457 227 487 227 c 256
 519 227 545 255 545 285 c 256
 545 315 519 344 487 344 c 256
 457 344 429 315 429 285 c 256
EndSplineSet
PickledDataWithLists: "(dp1
S'com.fontlab.hintData'
p2
(dp3
S'vhints'
p4
(lp5
(dp6
S'position'
p7
I108
sS'width'
p8
I36
sa(dp9
g7
I413
sg8
I36
sasS'hhints'
p10
(lp11
(dp12
g7
I0
sg8
I21
sa(dp13
g7
I485
sg8
I35
sass."
EndChar

StartChar: tml_Lla
Encoding: 32 2995 3
GlifName: tml_L_la
Width: 877
VWidth: 1
GlyphClass: 2
Flags: MW
LayerCount: 2
Back
Fore
SplineSet
34 246 m 256
 34 453 117 576 262 577 c 256
 401 578 499 429 499 218 c 256
 413 249 l 256
 411 388 352 480 262 480 c 256
 176 480 134 380 134 256 c 256
 134 159 152 75 200 75 c 256
 246 75 255 139 255 178 c 256
 255 239 228 272 202 272 c 256
 162 272 132 222 144 148 c 257
 58 217 l 257
 80 267 110 373 207 373 c 256
 276 373 356 316 356 175 c 256
 356 54 298 -23 200 -23 c 256
 95 -23 34 91 34 246 c 256
413 1 m 257
 413 560 l 257
 852 560 l 257
 852 462 l 257
 749 462 l 257
 749 1 l 257
 642 1 l 257
 642 462 l 257
 521 462 l 257
 521 1 l 257
 413 1 l 257
EndSplineSet
PickledDataWithLists: "(dp1
S'com.fontlab.hintData'
p2
(dp3
S'vhints'
p4
(lp5
(dp6
S'position'
p7
I23
sS'width'
p8
I37
sa(dp9
g7
I272
sg8
I37
sa(dp10
g7
I424
sg8
I35
sa(dp11
g7
I698
sg8
I36
sasS'hhints'
p12
(lp13
(dp14
g7
I-17
sg8
I36
sa(dp15
g7
I0
sg8
I21
sa(dp16
g7
I233
sg8
I36
sa(dp17
g7
I485
sg8
I35
sa(dp18
g7
I499
sg8
I36
sass."
EndChar

StartChar: tml_Day
Encoding: 66 3059 4
GlifName: tml_D_ay
Width: 621
VWidth: 1
GlyphClass: 2
Flags: MW
AnchorPoint: "tml_virama" 408 2 basechar 0
LayerCount: 2
Back
Fore
SplineSet
25 246 m 256
 25 453 118 576 274 577 c 256
 412 578 509 449 509 265 c 256
 509 119 464 60 464 60 c 257
 374 82 l 257
 391 122 404 172 404 263 c 256
 404 393 353 480 274 480 c 256
 174 480 127 380 127 256 c 256
 127 159 144 75 192 75 c 256
 238 75 247 139 247 178 c 256
 247 239 218 272 192 272 c 256
 153 272 125 222 137 148 c 257
 50 217 l 257
 72 267 102 373 198 373 c 256
 267 373 349 316 349 175 c 256
 349 54 290 -23 192 -23 c 256
 87 -23 25 91 25 246 c 256
374 82 m 257
 482 99 l 257
 597 99 l 257
 597 1 l 257
 375 1 l 257
 374 82 l 257
EndSplineSet
EndChar

StartChar: tml_Pa
Encoding: 26 2986 5
GlifName: tml_P_a
Width: 501
VWidth: 1
GlyphClass: 2
Flags: HMW
AnchorPoint: "tml_virama" 250 1 basechar 0
LayerCount: 2
Back
Fore
SplineSet
50 1 m 257
 50 557 l 257
 157 557 l 257
 157 98 l 261
 332 98 l 261
 332 557 l 257
 440 557 l 257
 440 1 l 257
 50 1 l 257
EndSplineSet
PickledDataWithLists: "(dp1
S'com.fontlab.hintData'
p2
(dp3
S'vhints'
p4
(lp5
(dp6
S'position'
p7
I50
sS'width'
p8
I36
sa(dp9
g7
I435
sg8
I36
sasS'hhints'
p10
(lp11
(dp12
g7
I0
sg8
I35
sass."
EndChar

StartChar: tml_Ra
Encoding: 29 2992 6
GlifName: tml_R_a
Width: 498
VWidth: 7
GlyphClass: 2
Flags: MW
AnchorPoint: "tml_virama" 214 6 basechar 0
LayerCount: 2
Back
Fore
SplineSet
49 6 m 257
 49 565 l 261
 488 565 l 261
 488 467 l 261
 385 467 l 261
 385 6 l 257
 277 6 l 257
 277 467 l 261
 156 467 l 261
 156 6 l 257
 49 6 l 257
59 -168 m 257
 280 39 l 257
 387 6 l 257
 125 -235 l 257
 59 -168 l 257
EndSplineSet
PickledDataWithLists: "(dp1
S'com.fontlab.hintData'
p2
(dp3
S'vhints'
p4
(lp5
(dp6
S'position'
p7
I7
sS'width'
p8
I36
sa(dp9
g7
I313
sg8
I36
sasS'hhints'
p10
(lp11
(dp12
g7
I0
sg8
I21
sa(dp13
g7
I485
sg8
I35
sass."
EndChar

StartChar: tml_Tta
Encoding: 21 2975 7
GlifName: tml_T_ta
Width: 662
VWidth: 1
GlyphClass: 2
Flags: HMW
AnchorPoint: "tml_virama" 338 1 basechar 0
LayerCount: 2
Back
Fore
SplineSet
45 1 m 257
 45 558 l 257
 152 558 l 257
 152 99 l 261
 632 99 l 261
 632 1 l 257
 45 1 l 257
EndSplineSet
PickledDataWithLists: "(dp1
S'com.fontlab.hintData'
p2
(dp3
S'vhints'
p4
(lp5
(dp6
S'position'
p7
I60
sS'width'
p8
I36
sasS'hhints'
p9
(lp10
(dp11
g7
I0
sg8
I35
sass."
EndChar

StartChar: tml_Va
Encoding: 34 2997 8
GlifName: tml_V_a
Width: 757
VWidth: 1
GlyphClass: 2
Flags: HMW
AnchorPoint: "tml_virama" 407 2 basechar 0
LayerCount: 2
Back
Fore
SplineSet
25 246 m 256
 25 453 118 576 274 577 c 256
 412 578 509 449 509 265 c 256
 509 120.424390244 464 62 464 62 c 257
 374 84 l 257
 391 123.55801105 404 173.005524862 404 263 c 256
 404 393 353 480 274 480 c 256
 174 480 126 380 126 256 c 256
 126 159 144 75 192 75 c 256
 238 75 247 139 247 178 c 256
 247 239 218 272 192 272 c 256
 153 272 123 222 135 148 c 257
 49 217 l 257
 71 267 101 373 197 373 c 256
 266 373 348 316 348 175 c 256
 348 54 290 -23 192 -23 c 256
 87 -23 25 91 25 246 c 256
374 84 m 257
 481 101 l 257
 588 101 l 257
 588 559 l 257
 695 559 l 257
 695 1 l 257
 375 1 l 257
 374 84 l 257
EndSplineSet
EndChar

StartChar: tml_MatraAa
Encoding: 39 3006 9
GlifName: tml_M_atraA_a
Width: 484
VWidth: 1
GlyphClass: 2
Flags: MW
LayerCount: 2
Back
Fore
SplineSet
49 1 m 257
 49 560 l 257
 488 560 l 257
 488 462 l 257
 385 462 l 257
 385 1 l 257
 277 1 l 257
 277 462 l 257
 156 462 l 257
 156 1 l 257
 49 1 l 257
EndSplineSet
PickledDataWithLists: "(dp1
S'com.fontlab.hintData'
p2
(dp3
S'vhints'
p4
(lp5
(dp6
S'position'
p7
I108
sS'width'
p8
I36
sa(dp9
g7
I413
sg8
I36
sasS'hhints'
p10
(lp11
(dp12
g7
I0
sg8
I21
sa(dp13
g7
I485
sg8
I35
sass."
EndChar

StartChar: tml_Seven
Encoding: 60 3053 10
GlifName: tml_S_even
Width: 597
VWidth: 2
GlyphClass: 2
Flags: MW
LayerCount: 2
Back
Fore
SplineSet
27 246 m 256
 27 443 137 559 326 560 c 256
 326 462 l 256
 184 462 129 370 129 256 c 256
 129 159 146 75 194 75 c 256
 240 75 248 140 248 179 c 256
 248 240 221 272 195 272 c 256
 155 272 126 222 138 148 c 257
 51 218 l 257
 73 268 103 373 200 373 c 256
 269 373 350 317 350 176 c 256
 350 55 292 -23 194 -23 c 256
 89 -23 27 91 27 246 c 256
312 462 m 257
 322 560 l 257
 535 560 l 257
 535 462 l 257
 535 1 l 257
 428 1 l 257
 428 462 l 257
 312 462 l 257
EndSplineSet
PickledDataWithLists: "(dp1
S'com.fontlab.hintData'
p2
(dp3
S'vhints'
p4
(lp5
(dp6
S'position'
p7
I94
sS'width'
p8
I36
sa(dp9
g7
I399
sg8
I36
sasS'hhints'
p10
(lp11
(dp12
g7
I0
sg8
I21
sa(dp13
g7
I485
sg8
I35
sass."
EndChar

StartChar: NameMe.13
Encoding: 256 -1 11
GlifName: N_ameM_e.13
Width: 533
VWidth: -4
GlyphClass: 2
Flags: MW
LayerCount: 2
Back
Fore
SplineSet
12 254 m 256
 12 401 95 479 187 479 c 256
 221 479 247 469 270 452 c 257
 230 349 l 257
 204 365 160 373 138 323 c 256
 130 305 125 282 125 254 c 256
 125 168 181 114 237 114 c 256
 345 114 386 246 386 382 c 256
 386 518 347 652 241 652 c 256
 172 652 139 599 129 560 c 258
 127 554 l 257
 18 594 l 257
 20 598 l 258
 45 676 102 770 241 770 c 256
 481 770 503 495 503 382 c 256
 503 268 477 -4 237 -4 c 256
 82 -4 12 135 12 254 c 256
EndSplineSet
EndChar

StartChar: tml_A
Encoding: 4 2949 12
GlifName: tml_A_
Width: 825
VWidth: 4
GlyphClass: 2
Flags: MW
LayerCount: 2
Back
Fore
SplineSet
39 64 m 260
 38 166 100 229 222 229 c 262
 675 229 l 261
 675 131 l 261
 219 131 l 262
 171 131 147 99 147 61 c 260
 147 -7 213 -46 287 -46 c 260
 432 -46 489 50 490 195 c 260
 491 337 454 485 351 484 c 260
 323 484 303 459 303 430 c 260
 303 396 323 369 352 369 c 260
 376 369 399 387 399 427 c 260
 399 468 373 484 352 484 c 261
 453 490 l 261
 466 463 471 435 471 412 c 260
 471 332 426 276 345 276 c 260
 264 275 204 335 203 424 c 260
 202 520 266 581 352 580 c 260
 534 579 595 377 596 199 c 260
 597 -7 491 -144 287 -144 c 260
 134 -144 40 -49 39 64 c 260
657 -115 m 257
 657 562 l 257
 764 562 l 257
 764 -115 l 257
 657 -115 l 257
EndSplineSet
PickledDataWithLists: "(dp1
S'com.fontlab.hintData'
p2
(dp3
S'vhints'
p4
(lp5
(dp6
S'position'
p7
I155
sS'width'
p8
I37
sa(dp9
g7
I524
sg8
I37
sa(dp10
g7
I670
sg8
I36
sa(dp11
g7
I670
sg8
I8
sasS'hhints'
p12
(lp13
(dp14
g7
I-134
sg8
I36
sa(dp15
g7
I160
sg8
I35
sa(dp16
g7
I298
sg8
I35
sa(dp17
g7
I492
sg8
I37
sass."
EndChar

StartChar: tml_Aa
Encoding: 5 2950 13
GlifName: tml_A_a
Width: 1075
VWidth: 10
GlyphClass: 2
Flags: MW
LayerCount: 2
Back
Fore
SplineSet
495 -139 m 257
 592 -122 l 257
 609 -234 656 -284 760 -285 c 256
 884 -286 922 -179 922 -75 c 256
 922 6 904 76 843 76 c 256
 783 76 760 44 759 -15 c 257
 682 -51 l 257
 680 80 746 174 843 174 c 256
 974 174 1030 51 1030 -75 c 256
 1030 -255 928 -383 760 -383 c 256
 659 -383 517 -344 495 -139 c 257
EndSplineSet
Refer: 12 2949 N 1 0 0 1 0 0 2
PickledDataWithLists: "(dp1
S'com.fontlab.hintData'
p2
(dp3
S'hhints'
p4
(lp5
(dp6
S'position'
p7
I-134
sS'width'
p8
I36
sa(dp9
g7
I160
sg8
I35
sa(dp10
g7
I298
sg8
I35
sa(dp11
g7
I492
sg8
I37
sass."
EndChar

StartChar: tml_Nnna
Encoding: 25 2985 14
GlifName: tml_N_nna
Width: 939
VWidth: 1
GlyphClass: 2
Flags: MW
LayerCount: 2
Back
Fore
SplineSet
17 246 m 256
 17 450 132 571 327 572 c 256
 327 474 l 256
 178 474 119 378 119 256 c 256
 119 159 136 75 184 75 c 256
 230 75 239 139 239 178 c 256
 239 239 211 272 185 272 c 256
 145 272 117 222 129 148 c 257
 42 217 l 257
 64 267 94 373 191 373 c 256
 260 373 341 316 341 175 c 256
 341 54 282 -23 184 -23 c 256
 79 -23 17 91 17 246 c 256
327 474 m 257
 327 572 l 257
 349 572 l 257
 349 474 l 257
 327 474 l 257
347 474 m 256
 347 572 l 256
 502 572 666 470 666 214 c 256
 666 53 623 -23 518 -23 c 256
 416 -23 366 55 366 214 c 256
 366 425 448 560 640 561 c 257
 925 561 l 257
 925 463 l 257
 823 463 l 257
 823 1 l 257
 715 1 l 257
 715 463 l 257
 641 463 l 257
 520 463 474 368 474 214 c 256
 474 142 489 75 518 75 c 256
 546 75 558 134 558 213 c 256
 558 414 440 474 347 474 c 256
EndSplineSet
EndChar

StartChar: tml_Nna
Encoding: 22 2979 15
GlifName: tml_N_na
Width: 1274
VWidth: 1
GlyphClass: 2
Flags: MW
AnchorPoint: "tml_virama" 457 1 basechar 0
LayerCount: 2
Back
Fore
SplineSet
9 246 m 256
 9 450 124 571 320 572 c 256
 320 474 l 256
 179 474 111 378 111 256 c 256
 111 159 128 75 176 75 c 256
 222 75 231 139 231 178 c 256
 231 239 203 272 177 272 c 256
 137 272 109 222 121 148 c 257
 33 217 l 257
 55 267 86 373 183 373 c 256
 252 373 333 316 333 175 c 256
 333 54 274 -23 176 -23 c 256
 71 -23 9 91 9 246 c 256
320 474 m 257
 320 572 l 257
 342 572 l 257
 342 474 l 257
 320 474 l 257
340 474 m 256
 340 572 l 256
 495 572 658 470 658 214 c 256
 658 53 615 -23 510 -23 c 256
 409 -23 360 55 360 214 c 256
 360 431 456 571 682 572 c 257
 678 474 l 257
 526 474 468 375 468 214 c 256
 468 142 482 75 510 75 c 256
 538 75 550 134 550 213 c 256
 550 414 433 474 340 474 c 256
675 474 m 256
 675 572 l 256
 831 572 996 470 996 214 c 256
 996 53 952 -23 848 -23 c 256
 748 -23 699 55 699 214 c 256
 699 425 780 560 970 561 c 257
 1257 561 l 257
 1257 463 l 257
 1154 463 l 257
 1154 1 l 257
 1046 1 l 257
 1046 463 l 257
 971 463 l 257
 852 463 807 368 807 214 c 256
 807 142 821 75 848 75 c 256
 875 75 887 134 887 213 c 256
 887 414 769 474 675 474 c 256
EndSplineSet
PickledDataWithLists: "(dp1
S'com.fontlab.hintData'
p2
(dp3
S'vhints'
p4
(lp5
(dp6
S'position'
p7
I-51
sS'width'
p8
I37
sa(dp9
g7
I198
sg8
I37
sa(dp10
g7
I447
sg8
I36
sasS'hhints'
p11
(lp12
(dp13
g7
I-17
sg8
I36
sa(dp14
g7
I1
sg8
I21
sa(dp15
g7
I233
sg8
I36
sa(dp16
g7
I486
sg8
I35
sass."
EndChar

StartChar: tml_Ma
Encoding: 27 2990 17
GlifName: tml_M_a
Width: 623
VWidth: 1
GlyphClass: 2
Flags: MW
AnchorPoint: "tml_virama" 277 0 basechar 0
LayerCount: 2
Back
Fore
SplineSet
46 0 m 261
 46 559 l 261
 153 559 l 261
 153 98 l 261
 372 98 l 261
 388 0 l 261
 46 0 l 261
241 68 m 260
 241 392 l 262
 241 509 276 575 394 576 c 260
 517 577 571 415 572 279 c 260
 573 88 512 0 384 0 c 261
 365 98 l 261
 457 97 464 176 464 279 c 260
 464 365 444 477 395 477 c 260
 354 477 349 444 349 392 c 262
 349 68 l 261
 241 68 l 260
EndSplineSet
PickledDataWithLists: "(dp1
S'com.fontlab.hintData'
p2
(dp3
S'vhints'
p4
(lp5
(dp6
S'position'
p7
I70
sS'width'
p8
I35
sa(dp9
g7
I327
sg8
I35
sa(dp10
g7
I638
sg8
I36
sasS'hhints'
p11
(lp12
(dp13
g7
I0
sg8
I35
sa(dp14
g7
I520
sg8
I35
sass."
EndChar

StartChar: tml_Virama
Encoding: 50 3021 18
GlifName: tml_V_irama
Width: 0
VWidth: -19
GlyphClass: 4
Flags: MW
AnchorPoint: "tml_virama" 0 -19 mark 0
LayerCount: 2
Back
Fore
SplineSet
-63 680 m 256
 -63 714 -34 743 0 743 c 256
 34 743 63 714 63 680 c 256
 63 646 34 617 0 617 c 256
 -34 617 -63 646 -63 680 c 256
EndSplineSet
PickledDataWithLists: "(dp1
S'com.fontlab.hintData'
p2
(dp3
S'vhints'
p4
(lp5
(dp6
S'position'
p7
I-24
sS'width'
p8
I48
sasS'hhints'
p9
(lp10
(dp11
g7
I658
sg8
I48
sass."
EndChar

StartChar: tml_I
Encoding: 6 2951 19
GlifName: tml_I_
Width: 1005
VWidth: -1
GlyphClass: 2
Flags: MW
LayerCount: 2
Back
Fore
SplineSet
20 58 m 256
 19 278 266 306 428 306 c 256
 588 306 805 258 805 61 c 256
 805 -27 768 -150 561 -150 c 256
 285 -150 134 155 134 428 c 256
 134 661 271 805 511 804 c 256
 808 802 945 587 945 239 c 256
 945 162 945 -43 945 -102 c 257
 828 -101 l 257
 829 -51 831 168 831 259 c 256
 830 527 711 693 511 692 c 256
 342 692 245 609 245 407 c 256
 245 158 439 -42 559 -42 c 256
 673 -42 688 22 688 60 c 256
 688 119 638 193 423 193 c 256
 227 193 129 157 129 52 c 256
 129 -5 167 -42 248 -42 c 256
 380 -42 567 118 595 313 c 256
 616 442 587 541 476 540 c 256
 448 540 428 516 428 487 c 256
 428 453 448 424 477 424 c 256
 501 424 524 443 524 483 c 256
 524 524 498 540 477 540 c 257
 579 545 l 257
 592 518 596 491 596 468 c 256
 596 388 551 332 470 331 c 256
 389 330 329 391 328 480 c 256
 327 576 395 635 487 634 c 256
 654 633 718 466 696 297 c 256
 658 23 440 -150 258 -150 c 256
 88 -150 21 -61 20 58 c 256
EndSplineSet
PickledDataWithLists: "(dp1
S'com.fontlab.hintData'
p2
(dp3
S'vhints'
p4
(lp5
(dp6
S'position'
p7
I181
sS'width'
p8
I37
sa(dp9
g7
I550
sg8
I37
sa(dp10
g7
I696
sg8
I36
sa(dp11
g7
I696
sg8
I8
sasS'hhints'
p12
(lp13
(dp14
g7
I-134
sg8
I36
sa(dp15
g7
I160
sg8
I35
sa(dp16
g7
I298
sg8
I35
sa(dp17
g7
I492
sg8
I37
sass."
EndChar

StartChar: tml_La
Encoding: 31 2994 20
GlifName: tml_L_a
Width: 766
VWidth: 1
GlyphClass: 2
Flags: MW
LayerCount: 2
Back
Fore
SplineSet
551 -23 m 0
 707 -23 725 151 725 255 c 0
 725 401 672 525 617 584 c 0
 530 530 l 0
 530 530 619 445 619 256 c 0
 619 161 612 75 551 75 c 0
 499 75 485 112 485 161 c 0
 485 215 509 284 509 332 c 0
 509 466 438 577 273 576 c 256
 115 575 23 452 23 245 c 256
 23 90 85 -23 190 -23 c 256
 288 -23 346 54 346 175 c 256
 346 316 266 373 197 373 c 256
 100 373 69 267 47 217 c 257
 134 148 l 257
 122 222 151 272 191 272 c 256
 217 272 245 239 245 178 c 256
 245 139 236 75 190 75 c 256
 142 75 124 159 124 256 c 256
 124 380 173 479 273 479 c 256
 332 479 404 429 405 335 c 0
 406 287 385 227 384 170 c 0
 384 69 406 -23 551 -23 c 0
EndSplineSet
EndChar

StartChar: tml_Llla
Encoding: 33 2996 21
GlifName: tml_L_lla
Width: 623
VWidth: 7
GlyphClass: 2
Flags: MW
LayerCount: 2
Back
Fore
SplineSet
241 33 m 25
 346 32 l 25
 346 -3 l 0
 347 -96 463 -99 540 -99 c 25
 540 -195 l 25
 457 -195 l 17
 357 -195 310 -253 210 -253 c 0
 107 -253 48 -197 48 -97 c 0
 48 -87 48 -76 48 -63 c 25
 152 -62 l 17
 152 -99 163 -154 210 -154 c 4
 264 -154 277 -140 319 -132 c 17
 293 -117 244 -84 241 -8 c 0
 241 33 l 25
EndSplineSet
Refer: 17 2990 N 1 0 0 1 0 0 2
EndChar

StartChar: tml_Rra
Encoding: 30 2993 24
GlifName: tml_R_ra
Width: 709
VWidth: 8
GlyphClass: 2
Flags: MW
AnchorPoint: "tml_virama" 335 7 basechar 0
LayerCount: 2
Back
Fore
SplineSet
152 387 m 258
 152 9 l 256
 44 9 l 257
 44 392 l 257
 152 387 l 258
391 408 m 258
 391 9 l 256
 283 9 l 257
 283 392 l 258
 283 460 264 485 223 485 c 256
 181 485 152 446 152 378 c 256
 44 372 l 257
 45 480 83 583 223 583 c 256
 343 583 391 513 391 408 c 258
274 -178 m 0
 156 -179 167 -232 165 -301 c 1
 51 -301 l 1
 52 -202 72 -72 272 -71 c 0
 545 -70 551 57 551 270 c 256
 551 366 541 485 459 485 c 256
 404 485 391 444 391 327 c 256
 304 290 l 257
 275 467 337 582 459 582 c 256
 630 582 657 400 657 270 c 256
 657 -6 618 -175 274 -178 c 0
EndSplineSet
EndChar

StartChar: tml_Sha
Encoding: 35 2998 25
GlifName: tml_S_ha
Width: 810
VWidth: 1051
GlyphClass: 2
Flags: MW
AnchorPoint: "tml_virama" 377 1 basechar 0
LayerCount: 2
Back
Fore
SplineSet
42 560 m 1
 149 560 l 1
 149 153 l 2
 149 108 172 83 204 83 c 0
 230 83 262 97 262 153 c 2
 262 560 l 1
 369 560 l 1
 369 153 l 2
 369 41 311 -17 202 -17 c 0
 98 -17 42 46 42 153 c 2
 42 560 l 1
262 462 m 1
 262 560 l 1
 544 560 l 1
 563 462 l 1
 262 462 l 1
437 153 m 256
 437 545 l 256
 549 545 l 257
 549 153 l 256
 549 97 573 86 590 86 c 256
 637 86 647 136 647 284 c 256
 647 407 640 463 528 462 c 257
 539 560 l 257
 667 560 759 531 758 284 c 256
 757 96 721 -15 597 -15 c 256
 521 -15 437 17 437 153 c 256
EndSplineSet
EndChar

StartChar: tml_Ya
Encoding: 28 2991 28
GlifName: tml_Y_a
Width: 693
VWidth: 2
GlyphClass: 2
Flags: MW
AnchorPoint: "tml_virama" 339 1 basechar 0
LayerCount: 2
Back
Fore
SplineSet
45 161 m 258
 45 560 l 256
 152 560 l 257
 152 166 l 258
 152 105 172 83 214 83 c 256
 279 83 296 132 296 263 c 256
 342 299 l 257
 369 107 309 -17 196 -17 c 256
 78 -17 45 54 45 161 c 258
296 1 m 257
 296 560 l 257
 403 560 l 257
 403 99 l 257
 526 99 l 257
 526 560 l 257
 633 560 l 257
 633 1 l 257
 296 1 l 257
EndSplineSet
PickledDataWithLists: "(dp1
S'com.fontlab.hintData'
p2
(dp3
S'vhints'
p4
(lp5
(dp6
S'position'
p7
I-215
sS'width'
p8
I37
sa(dp9
g7
I34
sg8
I37
sa(dp10
g7
I186
sg8
I35
sa(dp11
g7
I460
sg8
I36
sasS'hhints'
p12
(lp13
(dp14
g7
I-17
sg8
I36
sa(dp15
g7
I0
sg8
I21
sa(dp16
g7
I233
sg8
I36
sa(dp17
g7
I485
sg8
I35
sa(dp18
g7
I499
sg8
I36
sass."
EndChar

StartChar: tml_Nya
Encoding: 20 2974 30
GlifName: tml_N_ya
Width: 1157
VWidth: 7
GlyphClass: 2
Flags: MW
LayerCount: 2
Back
Fore
SplineSet
70 240 m 256
 70 379 120 486 178 579 c 257
 269 534 l 257
 214 441 178 367 178 234 c 256
 178 -31 338 -171 560 -170 c 256
 771 -169 900 -64 900 120 c 256
 900 200 880 280 824 280 c 256
 776 280 762 238 763 159 c 256
 763 141 763 123 763 103 c 257
 661 100 l 257
 651 186 670 262 699 306 c 256
 734 358 775 384 829 383 c 256
 947 381 1004 257 1004 126 c 256
 1005 -122 831 -271 559 -270 c 256
 269 -269 71 -86 70 240 c 256
266 252 m 256
 266 449 376 565 565 566 c 256
 565 468 l 256
 423 468 368 376 368 262 c 256
 368 165 385 81 433 81 c 256
 479 81 488 145 488 184 c 256
 488 245 460 278 434 278 c 256
 394 278 365 228 377 154 c 257
 291 223 l 257
 313 273 342 379 439 379 c 256
 508 379 590 322 590 181 c 256
 590 60 531 -17 433 -17 c 256
 328 -17 266 97 266 252 c 256
548 468 m 257
 550 566 l 257
 866 566 l 257
 866 468 l 257
 763 468 l 257
 763 7 l 257
 655 7 l 257
 655 468 l 257
 548 468 l 257
EndSplineSet
PickledDataWithLists: "(dp1
S'com.fontlab.hintData'
p2
(dp3
S'vhints'
p4
(lp5
(dp6
S'position'
p7
I152
sS'width'
p8
I36
sa(dp9
g7
I457
sg8
I36
sasS'hhints'
p10
(lp11
(dp12
g7
I0
sg8
I21
sa(dp13
g7
I485
sg8
I35
sass."
EndChar

StartChar: tml_U
Encoding: 8 2953 32
GlifName: tml_U_
Width: 834
VWidth: 1048
GlyphClass: 2
Flags: MW
LayerCount: 2
Back
Fore
SplineSet
802 99 m 5
 802 1 l 5
 61 1 l 5
 60 99 l 5
 200 99 l 5
 325 109 409 200 410 352 c 4
 411 460 375 546 264 546 c 4
 222 546 185 527 162 498 c 5
 169 499 175 501 183 501 c 4
 248 501 325 450 325 325 c 4
 325 218 269 151 177 151 c 4
 84 151 29 251 29 390 c 4
 29 536 138 642 264 642 c 4
 419 642 514 531 514 355 c 4
 514 225 466 146 420 99 c 5
 802 99 l 5
136 315 m 5
 143 276 155 249 177 249 c 4
 216 249 223 299 223 328 c 4
 223 374 200 400 178 400 c 4
 149 400 136 366 136 315 c 5
EndSplineSet
EndChar

StartChar: tml_Ka
Encoding: 16 2965 35
GlifName: tml_K_a
Width: 626
VWidth: 1050
GlyphClass: 2
Flags: MW
LayerCount: 2
Back
Fore
SplineSet
15 175 m 0
 14 268 69 341 157 341 c 2
 436 341 l 0
 517 341 596 306 596 172 c 0
 596 79 568 2 439 -0 c 1
 396 2 l 1
 396 99 l 1
 431 99 l 2
 471 99 488 124 488 172 c 0
 488 224 464 242 423 242 c 0
 176 244 l 0
 135 244 115 214 115 175 c 0
 115 125 146 99 197 99 c 0
 262 99 293 142 293 207 c 2
 293 464 l 1
 231 464 l 1
 231 309 l 1
 124 309 l 1
 124 560 l 1
 503 560 l 1
 503 464 l 1
 400 464 l 1
 400 207 l 2
 400 100 360 1 197 1 c 0
 67 1 16 75 15 175 c 0
EndSplineSet
EndChar

StartChar: tml_Nga
Encoding: 17 2969 36
GlifName: tml_N_ga
Width: 782
VWidth: 1
GlyphClass: 2
Flags: MW
AnchorPoint: "tml_virama" 372 0 basechar 0
LayerCount: 2
Back
Fore
SplineSet
42 0 m 257
 42 566 l 257
 452 566 l 257
 452 468 l 257
 350 468 l 257
 350 164 l 257
 242 164 l 257
 242 468 l 257
 149 468 l 257
 149 0 l 257
 42 0 l 257
240 98 m 1
 689 98 l 1
 689 0 l 1
 240 0 l 1
 240 98 l 1
268 97 m 257
 330 97 l 256
 457 98 455 219 455 255 c 256
 455 294 431 317 406 317 c 256
 388 317 348 316 349 220 c 256
 349 202 349 194 349 174 c 257
 257 176 l 257
 247 221 258 301 287 345 c 256
 322 397 352 418 406 418 c 256
 493 418 559 353 560 244 c 256
 561 143 526 11 288 10 c 256
 269 10 l 257
 268 97 l 257
605 568 m 1
 712 568 l 1
 712 0 l 1
 605 0 l 1
 605 568 l 1
EndSplineSet
EndChar

StartChar: tml_Ca
Encoding: 18 2970 37
GlifName: tml_C_a
Width: 568
VWidth: 1050
GlyphClass: 2
Flags: MW
LayerCount: 2
Back
Fore
SplineSet
43 175 m 4
 42 267 85 324 152 339 c 5
 152 560 l 5
 533 560 l 5
 533 464 l 5
 431 464 l 5
 431 341 l 5
 533 341 l 5
 533 244 l 5
 431 244 l 5
 431 220 l 6
 432 111 401 1 227 1 c 4
 95 1 44 75 43 175 c 4
323 244 m 5
 203 244 l 6
 162 244 142 216 142 179 c 4
 142 127 173 99 227 99 c 4
 298 99 323 148 323 216 c 6
 323 244 l 5
323 342 m 5
 323 464 l 5
 260 464 l 5
 260 342 l 5
 323 342 l 5
EndSplineSet
EndChar

StartChar: tml_Ja
Encoding: 19 2972 38
GlifName: tml_J_a
Width: 903
VWidth: 2
GlyphClass: 2
Flags: HMWO
LayerCount: 2
Back
Fore
SplineSet
528 106 m 0
 400.607594937 106 421.215189873 -145 232 -145 c 0
 136.047393365 -145 41 -89.5774058577 41 34 c 4
 41 245.542440197 276.001241217 268.997754666 495 270 c 0
 572.795618082 270.472193343 603 327.888888889 603 380 c 0
 603 432.789473684 584.763157895 465 537 465 c 0
 495 465 455 415.013605442 454 298 c 1
 351 298 l 1
 355 407.756653992 371 581 537 581 c 0
 665.879581152 581 718 481.837209302 718 376 c 0
 718 238.424242424 621.190871369 168 487 168 c 0
 371 168 156 185.896639482 156 35 c 4
 156 -19.0158730159 185.291666667 -47 232 -47 c 0
 330.35443038 -47 311.620253165 204 528 204 c 0
 682.795454545 204 724 90.8547486034 724 47 c 0
 724 -128 618.75879397 -144 545 -144 c 0
 482 -144 450 -119 425 -94 c 1
 500 -29 l 1
 519 -42 528 -46 548 -46 c 0
 569.304347826 -46 597 -20.9682539683 597 37 c 0
 597 80.6708860759 568.836734694 106 528 106 c 0
349 298 m 257
 350 393.119047619 309 486 194 486 c 256
 166 486 146 463 146 429 c 256
 146 397 163 371 190 371 c 256
 216 371 242 389 242 429 c 256
 242 470 216 486 195 486 c 257
 297 492 l 257
 310 465 314 438 314 415 c 256
 314 335 258 279 184 278 c 256
 106.000711604 276.945955562 47 337 46 426 c 256
 45 511 118 582 216 582 c 256
 425 580.924242424 454 431.393939394 455 298 c 256
 349 298 l 257
EndSplineSet
EndChar

StartChar: tml_Ta
Encoding: 23 2980 39
GlifName: tml_T_a
Width: 632
VWidth: 1057
GlyphClass: 2
Flags: MW
AnchorPoint: "tml_virama" 293 7 basechar 0
LayerCount: 2
Back
Fore
SplineSet
16 181 m 0
 15 274 69 348 157 348 c 2
 416 348 l 0
 500 348 581 302 581 127 c 0
 481 127 l 0
 481 216 451 249 402 249 c 0
 176 251 l 0
 135 251 116 220 116 181 c 0
 116 131 146 105 197 105 c 0
 262 105 294 148 294 213 c 2
 294 470 l 1
 232 470 l 1
 232 316 l 1
 125 316 l 1
 125 566 l 1
 504 566 l 1
 504 470 l 1
 401 470 l 1
 401 213 l 2
 401 106 360 7 197 7 c 0
 67 7 17 81 16 181 c 0
416 348 m 5
 498 347 582 301 583 125 c 4
 583 124 583 124 583 123 c 4
 583 122 583 121 583 120 c 6
 581 -50 508 -136 295 -138 c 4
 177 -139 187 -192 185 -261 c 5
 71 -261 l 5
 72 -162 93 -32 293 -31 c 4
 449 -30 481 19 481 124 c 4
 481 216 450 247 402 249 c 5
 416 348 l 5
EndSplineSet
EndChar

StartChar: tml_Na
Encoding: 24 2984 40
GlifName: tml_N_a
Width: 651
VWidth: 8
GlyphClass: 2
Flags: MW
AnchorPoint: "tml_virama" 240 7 basechar 0
LayerCount: 2
Back
SplineSet
449.21875 324.21875 m 5
 527.76171875 323.2421875 607.3515625 280.2734375 608.3984375 112.3046875 c 4
 608.3984375 112.3046875 l 5
 608.3984375 111.328125 608.3984375 111.328125 608.3984375 110.3515625 c 4
 608.3984375 109.375 608.3984375 109.375 608.3984375 108.3984375 c 6
 608.3984375 108.3984375 l 5
 606.366210938 -53.7109375 537.408203125 -136.307617188 333.984375 -137.6953125 c 4
 221.708984375 -138.4609375 232.112304688 -188.17578125 230.46875 -254.8828125 c 5
 121.09375 -254.8828125 l 5
 122.010742188 -161.400390625 141.94921875 -37.3232421875 332.03125 -36.1328125 c 4
 481.893554688 -35.1943359375 510.7421875 11.7138671875 510.7421875 111.328125 c 4
 510.7421875 199.21875 482.196289062 228.515625 436.5234375 230.46875 c 5
 449.21875 324.21875 l 5
EndSplineSet
Fore
SplineSet
44 7 m 257
 44 572 l 257
 483 572 l 257
 483 474 l 257
 380 474 l 257
 380 7 l 257
 272 7 l 257
 272 474 l 257
 151 474 l 257
 151 7 l 257
 44 7 l 257
114 -271 m 257
 115 -172 117 -43 341 -42 c 256
 486 -41 502 11 502 122 c 256
 502 186 485 249 440 249 c 256
 403 249 380 222 380 172 c 256
 380 154 380 136 380 116 c 257
 309 101 l 257
 311 251 336 352 447 350 c 260
 566 348 609 239 609 127 c 256
 609 -70 535 -139 359 -140 c 256
 235 -141 225 -163 225 -271 c 257
 114 -271 l 257
EndSplineSet
PickledDataWithLists: "(dp1
S'com.fontlab.hintData'
p2
(dp3
S'vhints'
p4
(lp5
(dp6
S'position'
p7
I7
sS'width'
p8
I36
sa(dp9
g7
I313
sg8
I36
sasS'hhints'
p10
(lp11
(dp12
g7
I0
sg8
I21
sa(dp13
g7
I485
sg8
I35
sass."
EndChar

StartChar: tml_Ssa
Encoding: 36 2999 41
GlifName: tml_S_sa
Width: 1024
VWidth: 5
GlyphClass: 2
Flags: MW
AnchorPoint: "tml_virama" 441 4 basechar 0
LayerCount: 2
Back
Fore
SplineSet
16 249 m 256
 16 452 109 574 265 574 c 256
 403 574 499 450 499 269 c 256
 499 123 453 63 453 63 c 257
 364 85 l 257
 382 125 395 176 395 267 c 256
 395 393 344 477 265 477 c 256
 165 477 118 380 118 259 c 256
 118 162 135 78 183 78 c 256
 229 78 238 143 238 182 c 256
 238 243 210 275 184 275 c 256
 144 275 116 225 128 151 c 257
 40 220 l 257
 62 270 92 376 189 376 c 256
 258 376 340 319 340 178 c 256
 340 57 281 -20 183 -20 c 256
 78 -20 16 94 16 249 c 256
364 4 m 257
 364 85 l 257
 471 103 l 257
 866 103 l 257
 866 477 l 257
 973 477 l 257
 973 4 l 257
 364 4 l 257
513 414 m 256
 510 518 579 574 654 574 c 256
 777 574 797 484 796 419 c 257
 689 398 l 257
 688 450 682 477 656 476 c 256
 635 476 615 453 616 410 c 256
 616 363 638 260 746 260 c 256
 854 260 865 338 866 443 c 256
 943 440 l 256
 943 301 913 157 742 157 c 256
 624 157 517 237 513 414 c 256
689 -151 m 257
 689 402 l 257
 796 422 l 257
 796 -151 l 257
 689 -151 l 257
EndSplineSet
EndChar

StartChar: tml_MatraU
Encoding: 42 3009 46
GlifName: tml_M_atraU_
Width: 388
VWidth: -4
GlyphClass: 2
Flags: MW
LayerCount: 2
Back
SplineSet
172.8515625 532.2265625 m 6
 253.90625 532.2265625 343.75 509.765625 343.75 366.2109375 c 4
 343.75 262.6953125 291.015625 207.03125 201.171875 207.03125 c 4
 105.46875 207.03125 56.640625 286.1328125 56.640625 366.2109375 c 4
 56.640625 391.76953125 60.1591796875 416.494140625 68.05078125 438.4765625 c 5
 -149.4140625 438.4765625 l 5
 -149.4140625 532.2265625 l 5
 172.8515625 532.2265625 l 6
199.725585938 438.473632812 m 4
 169.811523438 438.071289062 159.1796875 399.241210938 159.1796875 366.2109375 c 4
 159.1796875 337.890625 169.921875 299.8046875 201.171875 299.8046875 c 4
 235.3515625 299.8046875 241.2109375 340.8203125 241.2109375 366.2109375 c 4
 241.2109375 435.526367188 209.723632812 438.368164062 199.725585938 438.473632812 c 4
EndSplineSet
Fore
SplineSet
187 560 m 262
 -161 560 l 4
 -161 464 l 260
 203 464 l 260
 211 464 248 465 248 388 c 260
 248 358 242 307 208 307 c 260
 174 307 162 353 162 388 c 260
 162 423 173 464 205 464 c 261
 202 552 l 261
 92 552 53 475 53 388 c 260
 53 299 102 211 200 211 c 260
 300 211 358 272 358 388 c 260
 358 537.132947977 268 560 187 560 c 262
EndSplineSet
EndChar

StartChar: tml_MatraUu
Encoding: 43 3010 47
GlifName: tml_M_atraU_u
Width: 549
VWidth: -6
GlyphClass: 2
Flags: MW
LayerCount: 2
Back
SplineSet
237.080078125 524.2734375 m 1
 295.745117188 509.231445312 343.750976562 468.404296875 343.750976562 366.209960938 c 0
 343.750976562 262.694335938 291.016601562 207.030273438 201.172851562 207.030273438 c 0
 105.469726562 207.030273438 56.6416015625 286.131835938 56.6416015625 366.209960938 c 0
 56.6416015625 390.588867188 59.173828125 415.006835938 64.6025390625 438.475585938 c 1
 -149.413085938 438.475585938 l 1
 -149.413085938 532.225585938 l 1
 108.125976562 532.225585938 l 1
 145.495117188 579.529296875 205.099609375 611.327148438 292.969726562 611.327148438 c 0
 352.540039062 611.327148438 494.141601562 573.241210938 498.047851562 365.233398438 c 0
 499.024414062 287.108398438 447.266601562 188.475585938 447.266601562 188.475585938 c 1
 381.836914062 217.772460938 l 1
 381.836914062 217.772460938 426.758789062 294.920898438 425.782226562 366.209960938 c 0
 424.805664062 462.889648438 361.329101562 535.155273438 299.805664062 535.155273438 c 0
 275.306640625 535.155273438 254.528320312 531.381835938 237.080078125 524.2734375 c 1
167.370117188 438.475585938 m 1
 161.734375 417.137695312 159.181640625 392.849609375 159.181640625 366.209960938 c 0
 159.181640625 337.889648438 169.923828125 299.803710938 201.173828125 299.803710938 c 0
 235.353515625 299.803710938 241.212890625 340.819335938 241.212890625 366.209960938 c 0
 241.212890625 439.452148438 198.244140625 438.475585938 188.478515625 438.475585938 c 2
 167.370117188 438.475585938 l 1
EndSplineSet
Fore
SplineSet
151 553 m 258
 -146 553 l 0
 -146 454 l 256
 168 454 l 256
 191 454 244 455 244 378 c 256
 244 352 238 309 202 309 c 256
 169 309 158 349 158 378 c 256
 158 471 208 555 287 555 c 256
 378 555 420 461 420 391 c 0
 420 304 374 223 374 223 c 1
 459 193 l 1
 459 193 513 280 513 381 c 0
 513 486 461 638 283 638 c 256
 161 638 49 552 49 378 c 256
 49 294 100 211 202 211 c 256
 298 211 354 269 354 378 c 256
 354 529 247 553 151 553 c 258
EndSplineSet
EndChar

StartChar: tml_MatraE
Encoding: 44 3014 48
GlifName: tml_M_atraE_
Width: 611
VWidth: -4
GlyphClass: 2
Flags: MW
LayerCount: 2
Back
Fore
SplineSet
48 255 m 256
 48 324 l 0
 47 654 187 805 336 806 c 256
 474 807 547 719 547 539 c 2
 549 0 l 260
 441 0 l 260
 440 539 l 2
 440 643 413 698 332 698 c 256
 213 698 152 490 152 321 c 0
 152 298 152 273 152 250 c 256
 152 153 170 69 218 69 c 256
 264 69 272 134 272 173 c 256
 272 234 245 266 219 266 c 256
 179 266 149 216 161 142 c 257
 75 212 l 257
 97 262 127 367 224 367 c 256
 293 367 374 311 374 170 c 256
 374 49 316 -29 218 -29 c 256
 112 -29 48 91 48 255 c 256
EndSplineSet
EndChar

StartChar: tml_MatraEe
Encoding: 45 3015 49
GlifName: tml_M_atraE_e
Width: 488
VWidth: -4
GlyphClass: 2
Flags: MW
LayerCount: 2
Back
Fore
SplineSet
294 69 m 256
 337 69 344 133 344 168 c 256
 344 238 322 271 294 271 c 256
 268 271 247 227 247 168 c 0
 247 141 256 70 293 70 c 257
 228 12 l 257
 177 72 158 115 158 154 c 0
 158 303 224 367 300 367 c 256
 369 367 448 309 448 168 c 256
 448 47 389 -29 290 -29 c 256
 58 -29 30 211 30 378 c 256
 30 623 126 807 289 807 c 256
 387 807 448 728 448 607 c 256
 448 466 366 411 297 411 c 256
 214 411 161 502 161 608 c 0
 161 655 188 733 198 761 c 257
 292 709 l 257
 292 709 244 701 244 607 c 0
 244 544 274 511 296 511 c 256
 322 511 348 543 348 604 c 256
 348 643 340 708 294 708 c 256
 217 708 132 520 132 378 c 256
 132 255 135 69 294 69 c 256
EndSplineSet
EndChar

StartChar: dottedcircle
Encoding: 75 9676 111
GlifName: dottedcircle
Width: 761
VWidth: 2
GlyphClass: 2
Flags: MW
LayerCount: 2
Back
Fore
SplineSet
84 257 m 256
 84 266 88 275 94 281 c 256
 100 287 108 290 117 290 c 256
 126 290 134 287 140 281 c 256
 146 275 149 266 149 257 c 256
 149 248 146 240 140 234 c 256
 134 228 126 225 117 225 c 256
 108 225 100 228 94 234 c 256
 88 240 84 248 84 257 c 256
100 162 m 256
 100 171 104 181 110 187 c 256
 116 193 125 197 134 197 c 256
 144 197 152 193 157 187 c 256
 162 181 165 171 165 162 c 256
 165 153 162 146 157 140 c 256
 152 134 144 131 134 131 c 256
 125 131 116 134 110 140 c 256
 104 146 100 153 100 162 c 256
100 354 m 256
 100 363 104 371 110 377 c 256
 116 383 125 386 134 386 c 256
 144 386 152 383 157 377 c 256
 162 371 165 363 165 354 c 256
 165 345 162 335 157 329 c 256
 152 323 144 321 134 321 c 256
 125 321 116 323 110 329 c 256
 104 335 100 345 100 354 c 256
153 73 m 256
 153 82 156 92 162 98 c 256
 168 104 176 108 185 108 c 256
 194 108 203 104 209 98 c 256
 215 92 218 82 218 73 c 256
 218 64 215 56 209 50 c 256
 203 44 194 41 185 41 c 256
 176 41 168 44 162 50 c 256
 156 56 153 64 153 73 c 256
153 442 m 256
 153 451 156 459 162 465 c 256
 168 471 177 475 186 475 c 256
 195 475 203 472 209 466 c 256
 215 460 219 452 219 442 c 256
 219 432 215 424 209 418 c 256
 203 412 195 409 186 409 c 256
 177 409 168 412 162 418 c 256
 156 424 153 433 153 442 c 256
239 19 m 256
 239 29 242 37 249 43 c 256
 256 49 263 52 272 52 c 256
 281 52 289 49 295 43 c 256
 301 37 305 29 305 19 c 256
 305 10 301 1 295 -5 c 256
 289 -11 281 -14 272 -14 c 256
 263 -14 256 -11 249 -5 c 256
 242 1 239 10 239 19 c 256
239 498 m 256
 239 507 242 516 249 522 c 256
 256 528 263 531 272 531 c 256
 281 531 289 528 295 522 c 256
 301 516 305 507 305 498 c 256
 305 489 301 480 295 474 c 256
 289 468 281 465 272 465 c 256
 263 465 256 468 249 474 c 256
 242 480 239 489 239 498 c 256
338 1 m 256
 338 11 342 19 348 25 c 256
 354 31 362 34 371 34 c 256
 380 34 389 31 395 25 c 256
 401 19 403 11 403 1 c 256
 403 -8 401 -16 395 -22 c 256
 389 -28 380 -31 371 -31 c 256
 362 -31 354 -28 348 -22 c 256
 342 -16 338 -8 338 1 c 256
338 515 m 256
 338 524 342 533 348 539 c 256
 354 545 362 549 371 549 c 256
 380 549 389 545 395 539 c 256
 401 533 403 524 403 515 c 256
 403 506 401 498 395 492 c 256
 389 486 380 484 371 484 c 256
 362 484 354 486 348 492 c 256
 342 498 338 506 338 515 c 256
440 19 m 256
 440 29 443 37 449 43 c 256
 455 49 463 52 472 52 c 256
 482 52 490 49 496 43 c 256
 502 37 505 29 505 19 c 256
 505 10 502 1 496 -5 c 256
 490 -11 482 -14 472 -14 c 256
 463 -14 455 -11 449 -5 c 256
 443 1 440 10 440 19 c 256
440 498 m 256
 440 507 443 516 449 522 c 256
 455 528 463 531 472 531 c 256
 482 531 490 528 496 522 c 256
 502 516 505 507 505 498 c 256
 505 489 502 480 496 474 c 256
 490 468 482 465 472 465 c 256
 463 465 455 468 449 474 c 256
 443 480 440 489 440 498 c 256
525 442 m 256
 525 452 528 460 534 466 c 256
 540 472 548 475 557 475 c 256
 567 475 576 471 582 465 c 256
 588 459 591 451 591 442 c 256
 591 433 588 424 582 418 c 256
 576 412 567 409 557 409 c 256
 548 409 540 412 534 418 c 256
 528 424 525 432 525 442 c 256
527 73 m 256
 527 82 529 92 535 98 c 256
 541 104 550 108 559 108 c 256
 568 108 576 104 582 98 c 256
 588 92 591 82 591 73 c 256
 591 64 588 56 582 50 c 256
 576 44 568 41 559 41 c 256
 550 41 541 44 535 50 c 256
 529 56 527 64 527 73 c 256
579 162 m 256
 579 171 582 181 588 187 c 256
 594 193 602 197 611 197 c 256
 620 197 628 193 634 187 c 256
 640 181 644 171 644 162 c 256
 644 153 640 146 634 140 c 256
 628 134 620 131 611 131 c 256
 602 131 594 134 588 140 c 256
 582 146 579 153 579 162 c 256
579 354 m 256
 579 363 582 371 588 377 c 256
 594 383 602 386 611 386 c 256
 620 386 628 383 634 377 c 256
 640 371 644 363 644 354 c 256
 644 345 640 335 634 329 c 256
 628 323 620 321 611 321 c 256
 602 321 594 323 588 329 c 256
 582 335 579 345 579 354 c 256
595 257 m 256
 595 266 597 275 603 281 c 256
 609 287 617 290 626 290 c 256
 636 290 644 287 650 281 c 256
 656 275 660 266 660 257 c 256
 660 248 656 240 650 234 c 256
 644 228 636 225 626 225 c 256
 617 225 609 228 603 234 c 256
 597 240 595 248 595 257 c 256
EndSplineSet
PickledDataWithLists: "(dp1
S'com.fontlab.hintData'
p2
(dp3
S'vhints'
p4
(lp5
(dp6
S'position'
p7
I100
sS'width'
p8
I64
sa(dp9
g7
I116
sg8
I63
sa(dp10
g7
I167
sg8
I63
sa(dp11
g7
I251
sg8
I64
sa(dp12
g7
I348
sg8
I64
sa(dp13
g7
I447
sg8
I64
sa(dp14
g7
I532
sg8
I63
sa(dp15
g7
I583
sg8
I63
sa(dp16
g7
I598
sg8
I63
sasS'hhints'
p17
(lp18
(dp19
g7
I-32
sg8
I64
sa(dp20
g7
I-15
sg8
I64
sa(dp21
g7
I38
sg8
I65
sa(dp22
g7
I126
sg8
I64
sa(dp23
g7
I218
sg8
I64
sa(dp24
g7
I311
sg8
I64
sa(dp25
g7
I397
sg8
I65
sa(dp26
g7
I452
sg8
I64
sa(dp27
g7
I470
sg8
I63
sass."
EndChar

StartChar: uni0061
Encoding: 277 97 135
Width: 452
Flags: W
HStem: -15 100<425.5 442 425.5 442> -15 104<183 196> 221 85<208 237 165 245> 411 103<187.5 216.5>
VStem: 15 131<126 169 126 193> 269 130<196 220 220 220 305 331 331 336>
LayerCount: 2
Back
Fore
SplineSet
399 133 m 2xbc
 399 100 409 85 442 85 c 1xb4
 442 -15 l 1
 364 -15 311 -5 294 54 c 1
 268 7 220 -15 172 -15 c 0x7c
 93 -15 15 41 15 142 c 0
 15 244 98 306 232 306 c 0
 242 306 255 306 269 305 c 1
 269 331 l 2
 269 389 239 411 194 411 c 0
 154 411 111 394 73 373 c 1
 31 457 l 1
 88 492 158 514 217 514 c 0
 324 514 399 455 399 336 c 2
 399 133 l 2xbc
198 89 m 0x7c
 248 89 269 118 269 196 c 2
 269 220 l 1
 260 221 250 221 240 221 c 0
 176 221 146 196 146 142 c 0
 146 110 168 89 198 89 c 0x7c
EndSplineSet
EndChar

StartChar: uni0062
Encoding: 278 98 136
Width: 501
Flags: W
HStem: -15 105<231.5 277.5 231.5 314> 410 105<273.5 286> 705 20G<51 181 181 181>
VStem: 50.5 131.5 345 133<219.5 318>
LayerCount: 2
Back
Fore
SplineSet
295 515 m 0
 404 515 478 425 478 276 c 0
 478 91 386 -15 242 -15 c 0
 177 -15 112 -3 50 30 c 1
 51 725 l 1
 181 725 l 1
 183 471 l 1
 213 501 252 515 295 515 c 0
241 90 m 0
 314 90 345 165 345 274 c 0
 345 362 310 410 262 410 c 0
 210 410 181 362 181 284 c 2
 180 104 l 1
 205 94 222 90 241 90 c 0
EndSplineSet
EndChar

StartChar: uni0063
Encoding: 279 99 137
Width: 429
Flags: W
HStem: -15 105<226.5 272.5> 410 105<216 265.5>
VStem: 21 133<199.5 299.5 199.5 337>
LayerCount: 2
Back
Fore
SplineSet
21 256 m 0
 21 418 117 515 247 515 c 0
 339 515 397 472 432 384 c 1
 326 340 l 1
 307 382 286 410 245 410 c 0
 187 410 154 348 154 251 c 0
 154 148 196 90 257 90 c 0
 291 90 328 101 375 124 c 1
 412 38 l 1
 356 2 304 -15 241 -15 c 0
 109 -15 21 84 21 256 c 0
EndSplineSet
EndChar

StartChar: uni0064
Encoding: 280 100 138
Width: 504
Flags: W
HStem: -15 100<474 484 474 484> -15 105<211.5 232.5> 410 105<222 268.5> 488 20G<323 323> 705 20G<323 453 453 453>
VStem: 22 133<204.5 292 204.5 309.5> 323 130<216 398 398 398 508 725>
LayerCount: 2
Back
Fore
SplineSet
453 116 m 2x9e
 453 96 464 85 484 85 c 1xae
 484 -15 l 1
 408 -15 356 -4 339 51 c 1
 306 6 259 -15 206 -15 c 0
 86 -15 22 98 22 236 c 0
 22 383 96 515 259 515 c 0x6e
 280 515 301 513 323 508 c 1
 323 725 l 1
 453 725 l 1
 453 116 l 2x9e
239 90 m 0x6e
 291 90 323 134 323 216 c 2
 323 398 l 1
 300 407 277 410 260 410 c 0
 184 410 155 336 155 248 c 0
 155 161 184 90 239 90 c 0x6e
EndSplineSet
EndChar

StartChar: uni0065
Encoding: 281 101 139
Width: 475
Flags: W
HStem: -15 105<245.5 295> 213 95.5 415 100<228 272>
VStem: 25 135<213 213 213 345.5> 324 131<213 344>
LayerCount: 2
Back
Fore
SplineSet
455 250 m 2
 455 213 l 1
 160 213 l 1
 170 131 215 90 276 90 c 0
 319 90 367 103 413 128 c 1
 447 42 l 1
 390 2 325 -15 265 -15 c 0
 130 -15 25 77 25 256 c 0
 25 435 133 515 256 515 c 0
 399 515 455 419 455 250 c 2
162 308 m 1
 324 309 l 1
 324 379 295 415 249 415 c 0
 207 415 173 380 162 308 c 1
EndSplineSet
EndChar

StartChar: uni0066
Encoding: 282 102 140
Width: 349
Flags: W
HStem: 0 21G<85 215 85 85> 330 95<27 85 27 85 215 317> 544 106<250 253.5 187 273>
VStem: 85 130<0 330 0 330 425 478>
LayerCount: 2
Back
Fore
SplineSet
265 544 m 0
 235 544 215 523 215 478 c 2
 215 425 l 1
 317 425 l 1
 317 330 l 1
 215 330 l 1
 215 0 l 1
 85 0 l 1
 85 330 l 1
 27 330 l 1
 27 425 l 1
 85 425 l 1
 85 484 l 2
 85 611 150 650 224 650 c 0
 283 650 327 626 353 605 c 1
 318 527 l 1
 299 538 281 544 265 544 c 0
EndSplineSet
EndChar

StartChar: uni0067
Encoding: 283 103 141
Width: 510
Flags: W
HStem: -215 101<207 273 207 309.5> -23 107 131 100<226.5 260 219.5 299> 409 100<218 250.5 179 258.5> 410 98 480 20G<301 301>
VStem: 20 120<-137.5 -58.5> 38 130<290 349.5 290 374.5> 42 103<101.5 104> 310 130<290 336 262.5 349.5> 357 126<-74 -44> 415 78<411 411>
LayerCount: 2
Back
Fore
SplineSet
493 508 m 1xe910
 493 409 l 1
 415 411 l 1xe910
 431 384 440 353 440 319 c 0
 440 206 358 131 240 131 c 0
 213 131 187 135 164 143 c 1
 151 133 145 122 145 113 c 0
 145 90 166 82 202 83 c 2xe8c0
 299 85 l 2
 420 87 483 28 483 -46 c 0
 483 -131 398 -215 221 -215 c 0
 114 -215 20 -176 20 -99 c 0xea20
 20 -66 42 -29 87 2 c 1
 58 23 42 54 42 87 c 0xe8c0
 42 121 59 157 94 183 c 1
 59 216 38 262 38 317 c 0
 38 432 118 509 240 509 c 0xe940
 261 509 282 506 301 500 c 1xe540
 493 508 l 1xe910
240 231 m 0xf140
 280 231 310 260 310 320 c 0
 310 379 279 409 238 409 c 0
 198 409 168 380 168 319 c 0
 168 261 199 231 240 231 c 0xf140
281 -21 m 2xea20
 181 -23 l 1
 166 -23 l 1
 149 -37 140 -52 140 -65 c 0
 140 -96 175 -114 239 -114 c 0
 307 -114 357 -91 357 -57 c 0
 357 -31 328 -20 281 -21 c 2xea20
EndSplineSet
EndChar

StartChar: uni0068
Encoding: 284 104 142
Width: 527
Flags: W
HStem: -15 100<494.5 507 494.5 507> 0 21G<55 185 55 55> 415 100<252 363.5> 705 20G<55 185 185 185>
VStem: 55 130<0 257 449 725> 341 130<117 119 119 326 326 336>
LayerCount: 2
Back
Fore
SplineSet
471 119 m 2xbc
 471 94 482 85 507 85 c 1
 507 -15 l 1xbc
 397 -15 341 7 341 117 c 2
 341 326 l 2
 341 383 315 415 276 415 c 0
 228 415 185 366 185 257 c 2
 185 0 l 1
 55 0 l 1x7c
 55 725 l 1
 185 725 l 1
 185 449 l 1
 222 493 271 515 322 515 c 0
 405 515 471 457 471 336 c 2
 471 119 l 2xbc
EndSplineSet
EndChar

StartChar: uni0069
Encoding: 285 105 143
Width: 245
Flags: W
HStem: 0 21G<57 57 57 187> 480 20G<57 187 187 187> 553 171<103.5 141.5>
VStem: 45 156<611 668 611 668> 57 130<0 500 0 500>
LayerCount: 2
Back
Fore
SplineSet
122 553 m 0xf0
 83 553 45 581 45 640 c 0
 45 696 84 724 123 724 c 0
 162 724 201 696 201 640 c 0
 201 582 161 553 122 553 c 0xf0
57 0 m 1xe8
 57 500 l 1
 187 500 l 1
 187 0 l 1
 57 0 l 1xe8
EndSplineSet
EndChar

StartChar: uni006A
Encoding: 286 106 144
Width: 252
Flags: W
HStem: -215 105<21 33.5 11.5 82.5> 480 20G<64 194 194 194> 553 171<110.5 148.5>
VStem: 52 156<611 668 611 668> 64 130<-43 500>
LayerCount: 2
Back
Fore
SplineSet
129 553 m 0xf0
 90 553 52 581 52 640 c 0
 52 696 91 724 130 724 c 0
 169 724 208 696 208 640 c 0
 208 582 168 553 129 553 c 0xf0
39 -215 m 0
 3 -215 -37 -207 -77 -187 c 1
 -39 -94 l 1
 -16 -105 4 -110 19 -110 c 0
 48 -110 64 -90 64 -43 c 2
 64 500 l 1
 194 500 l 1
 194 -49 l 2xe8
 194 -158 126 -215 39 -215 c 0
EndSplineSet
EndChar

StartChar: uni006B
Encoding: 287 107 145
Width: 508
Flags: W
HStem: -15 100<490 503 490 503> -1 21G<60 60> 234 104.5 480 20G<361 489 489 489> 705 20G<60 190 190 190>
VStem: 60 130<1 234 1 338 338 725>
LayerCount: 2
Back
Fore
SplineSet
449 111 m 2xbc
 461 89 477 85 503 85 c 1
 503 -15 l 1
 407 -15 379 -1 343 66 c 2xbc
 252 234 l 1
 190 234 l 1
 190 1 l 1
 60 -1 l 1x7c
 60 725 l 1
 190 725 l 1
 190 338 l 1
 268 339 l 1
 361 500 l 1
 489 500 l 1
 354 278 l 1
 449 111 l 2xbc
EndSplineSet
EndChar

StartChar: uni006C
Encoding: 288 108 146
Width: 259
Flags: W
HStem: -15 21G<141.5 191> -15 105<141.5 225.5> 705 20G<57 187 187 187>
VStem: 57 130<124 141 141 725>
LayerCount: 2
Back
Fore
SplineSet
178 -15 m 0xb0
 105 -15 57 27 57 115 c 2
 57 725 l 1
 187 725 l 1
 187 141 l 2
 187 107 198 90 222 90 c 0
 229 90 237 91 246 94 c 1x70
 264 0 l 1
 233 -10 204 -15 178 -15 c 0xb0
EndSplineSet
EndChar

StartChar: uni006D
Encoding: 289 109 147
Width: 793
Flags: W
HStem: -15 90<760.5 773 760.5 773> 0 21G<55 185 55 55 331 461 331 331> 415 85<55 291.5> 415 101<252 346 567 567.5>
VStem: 55 130<0 258 0 500> 331 130<0 258 0 329 0 357> 607 130<114 329 329 339>
LayerCount: 2
Back
Fore
SplineSet
737 109 m 2x9e
 737 84 748 75 773 75 c 1
 773 -15 l 1xae
 663 -15 607 4 607 114 c 2
 607 329 l 2
 607 385 585 415 550 415 c 0
 506 415 461 369 461 258 c 2
 461 0 l 1
 331 0 l 1
 331 329 l 2
 331 385 309 415 274 415 c 0
 230 415 185 369 185 258 c 2
 185 0 l 1
 55 0 l 1
 55 500 l 1
 180 500 l 1x6e
 182 443 l 1
 218 491 269 516 318 516 c 0
 374 516 423 485 447 424 c 1
 483 485 540 516 594 516 c 0
 671 516 737 457 737 339 c 2
 737 109 l 2x9e
EndSplineSet
EndChar

StartChar: uni006E
Encoding: 290 110 148
Width: 527
Flags: W
HStem: -15 100<494.5 507 494.5 507> 0 21G<55 185 55 55> 415 85<55 299> 415 100<296 299>
VStem: 55 130<0 255 0 500> 341 130<117 119 119 329 329 339>
LayerCount: 2
Back
Fore
SplineSet
471 119 m 2x9c
 471 94 482 85 507 85 c 1
 507 -15 l 1
 397 -15 341 7 341 117 c 2
 341 329 l 2
 341 380 319 415 279 415 c 0x9c
 231 415 185 368 185 255 c 2
 185 0 l 1
 55 0 l 1
 55 500 l 1
 180 500 l 1x6c
 182 443 l 1
 219 491 270 515 322 515 c 0
 405 515 471 456 471 339 c 2
 471 119 l 2x9c
EndSplineSet
EndChar

StartChar: uni006F
Encoding: 291 111 149
Width: 512
Flags: W
HStem: -15 105<228 284.5 228 324.5> 410 105<229 285>
VStem: 25 133<196.5 303 196.5 329.5> 355 132<195.5 302.5>
LayerCount: 2
Back
Fore
SplineSet
487 250 m 0
 487 83 398 -15 251 -15 c 0
 106 -15 25 90 25 248 c 0
 25 411 114 515 260 515 c 0
 406 515 487 412 487 250 c 0
355 248 m 0
 355 357 313 410 257 410 c 0
 201 410 158 356 158 250 c 0
 158 143 200 90 256 90 c 0
 313 90 355 143 355 248 c 0
EndSplineSet
EndChar

StartChar: uni0070
Encoding: 292 112 150
Width: 511
Flags: W
HStem: -200 21G<55 185 55 55> -15 105<237 282.5 237 319> -8 21G<185 185> 410 90<56 290.5> 410 105<278.5 290.5>
VStem: 55.5 130.5 350 133<218.5 319>
LayerCount: 2
Back
Fore
SplineSet
301 515 m 0xce
 402 515 483 427 483 276 c 0
 483 91 391 -15 247 -15 c 0xce
 226 -15 206 -13 185 -8 c 1
 185 -200 l 1
 55 -200 l 1
 56 500 l 1
 176 500 l 1xb6
 179 458 l 1
 213 497 256 515 301 515 c 0xce
246 90 m 0
 319 90 350 163 350 274 c 0
 350 364 314 410 267 410 c 0
 222 410 186 368 186 284 c 2
 186 102 l 1
 208 93 228 90 246 90 c 0
EndSplineSet
EndChar

StartChar: uni0071
Encoding: 293 113 151
Width: 511
Flags: W
HStem: -15 105<220 232> 410 105<228.5 274.5>
VStem: 28 133<182 280.5 182 316.5> 324 131.5
LayerCount: 2
Back
Fore
SplineSet
264 515 m 0
 329 515 394 500 456 470 c 1
 455 -225 l 1
 325 -225 l 1
 323 30 l 1
 292 -1 253 -15 211 -15 c 0
 104 -15 28 75 28 224 c 0
 28 409 122 515 264 515 c 0
244 90 m 0
 292 90 325 129 325 211 c 2
 326 396 l 1
 301 406 284 410 265 410 c 0
 192 410 161 335 161 226 c 0
 161 138 196 90 244 90 c 0
EndSplineSet
EndChar

StartChar: uni0072
Encoding: 294 114 152
Width: 338
Flags: W
HStem: 0 21G<55 185 55 55> 385 120<55 288> 493 20G<352 352>
VStem: 55 130<0 255 0 505>
LayerCount: 2
Back
Fore
SplineSet
310 518 m 0xb0
 322 518 339 517 352 513 c 1xb0
 325 380 l 1
 311 384 294 385 282 385 c 0
 218 385 185 336 185 255 c 2
 185 0 l 1
 55 0 l 1
 55 505 l 1
 180 505 l 1
 182 432 l 1xd0
 212 484 256 518 310 518 c 0xb0
EndSplineSet
EndChar

StartChar: uni0073
Encoding: 295 115 153
Width: 417
Flags: W
HStem: -15 100<175 212.5 175 250.5> 419 96<216 248>
VStem: 48 129<332 389 332 415.5> 260 129<120 185.5>
LayerCount: 2
Back
Fore
SplineSet
30 47 m 1
 77 123 l 1
 110 100 156 85 194 85 c 0
 231 85 260 101 260 139 c 0
 260 232 48 196 48 367 c 0
 48 464 136 515 229 515 c 0
 285 515 343 497 384 458 c 1
 339 382 l 1
 305 405 264 419 232 419 c 0
 200 419 177 405 177 373 c 0
 177 291 389 320 389 149 c 0
 389 42 300 -15 201 -15 c 0
 143 -15 80 6 30 47 c 1
EndSplineSet
EndChar

StartChar: uni0074
Encoding: 296 116 154
Width: 354
Flags: W
HStem: -15 105<184 273.5> 405 95<27 85 27 85 215 318>
VStem: 85 130<151 162 162 405 500 635>
LayerCount: 2
Back
Fore
SplineSet
319 108 m 1
 354 30 l 1
 308 -1 263 -15 224 -15 c 0
 144 -15 85 44 85 151 c 2
 85 405 l 1
 27 405 l 1
 27 500 l 1
 85 500 l 1
 85 635 l 1
 215 635 l 1
 215 500 l 1
 318 500 l 1
 318 405 l 1
 215 405 l 1
 215 162 l 2
 215 113 235 90 266 90 c 0
 281 90 300 96 319 108 c 1
EndSplineSet
EndChar

StartChar: uni0075
Encoding: 297 117 155
Width: 527
Flags: W
HStem: -15 100<230 237.5> -5 90<230 472 230 357> 480 20G<56 186 186 186 342 472 472 472>
VStem: 56 130<161 176 176 500> 342 130<245 500 -5 500>
LayerCount: 2
Back
Fore
SplineSet
342 500 m 1xb8
 472 500 l 1
 472 -5 l 1
 357 -5 l 1x78
 352 69 l 1
 315 12 261 -15 214 -15 c 0
 114 -15 56 49 56 161 c 2
 56 500 l 1
 186 500 l 1
 186 176 l 2
 186 124 209 85 251 85 c 0
 307 85 342 144 342 245 c 2
 342 500 l 1xb8
EndSplineSet
EndChar

StartChar: uni0076
Encoding: 298 118 156
Width: 482
Flags: W
HStem: 0 21G<176 305 176 176> 480 20G<2 135 135 135 353 480 480 480>
VStem: 2 478<500 500>
LayerCount: 2
Back
Fore
SplineSet
353 500 m 1
 480 500 l 1
 305 0 l 1
 176 0 l 1
 2 500 l 1
 135 500 l 1
 243 172 l 1
 353 500 l 1
EndSplineSet
EndChar

StartChar: uni0077
Encoding: 299 119 157
Width: 740
Flags: W
HStem: 0 21G<163 269 163 163 467 573 467 467> 480 20G<1 133 133 133 442 442 623 739 739 739>
VStem: 1 738<500 500>
LayerCount: 2
Back
Fore
SplineSet
623 500 m 1
 739 500 l 1
 573 0 l 1
 467 0 l 1
 371 329 l 1
 269 0 l 1
 163 0 l 1
 1 500 l 1
 133 500 l 1
 224 182 l 1
 317 495 l 1
 442 500 l 1
 528 184 l 1
 623 500 l 1
EndSplineSet
EndChar

StartChar: uni0078
Encoding: 300 120 158
Width: 478
Flags: W
HStem: -15 95<461 471 461 471> 0 21G<4 136 4 4> 480 20G<22 165 165 165 342 471 471 471>
VStem: 4 467<0 0>
LayerCount: 2
Back
Fore
SplineSet
419 104 m 2xb0
 432 84 451 80 471 80 c 1
 471 -15 l 1
 367 -15 342 -1 299 68 c 2xb0
 239 163 l 1
 136 0 l 1
 4 0 l 1x70
 178 259 l 1
 22 500 l 1
 165 500 l 1
 252 358 l 1
 342 500 l 1
 471 500 l 1
 311 265 l 1
 419 104 l 2xb0
EndSplineSet
EndChar

StartChar: uni0079
Encoding: 301 121 159
Width: 483
Flags: W
HStem: -215 103<88.5 113.5 88.5 141.5> 480 20G<15 146 146 146 357 484 484 484>
VStem: -19 503
LayerCount: 2
Back
Fore
SplineSet
357 500 m 1
 484 500 l 1
 291 -49 l 2
 252 -160 183 -215 100 -215 c 0
 62 -215 22 -203 -19 -182 c 1
 22 -88 l 1
 52 -103 77 -112 100 -112 c 0
 127 -112 149 -99 163 -67 c 2
 192 -1 l 1
 15 500 l 1
 146 500 l 1
 256 151 l 1
 357 500 l 1
EndSplineSet
EndChar

StartChar: uni007A
Encoding: 302 122 160
Width: 458
Flags: W
HStem: 0 93<198 418 198 418> 408 92<46 260 46 413>
VStem: 40 378<0 65 65 65>
LayerCount: 2
Back
Fore
SplineSet
418 93 m 1
 418 0 l 1
 40 0 l 1
 40 65 l 1
 260 408 l 1
 46 408 l 1
 46 500 l 1
 413 500 l 1
 413 432 l 1
 198 93 l 1
 418 93 l 1
EndSplineSet
EndChar

StartChar: uni0042
Encoding: 303 66 161
Width: 532
Flags: W
HStem: -5 110<240.5 282.5 240.5 302.5> 0 21G<60 60> 296 102<192 257 257 266 192 257> 569 110<238 273.5>
VStem: 60 132<109 296 398 567> 349 132<476 518.5> 372 130<165 225.5>
LayerCount: 2
Back
Fore
SplineSet
368 356 m 1xba
 451 337 502 273 502 198 c 0
 502 51 397 -5 208 -5 c 0xba
 160 -5 113 -3 60 0 c 1
 60 675 l 1
 117 677 169 679 249 679 c 0
 380 679 481 628 481 508 c 0x7c
 481 444 440 378 368 356 c 1xba
349 489 m 0xbc
 349 548 301 569 246 569 c 0
 230 569 211 568 192 567 c 1
 192 398 l 1
 257 398 l 2
 313 398 349 440 349 489 c 0xbc
250 105 m 0xba
 315 105 372 129 372 201 c 0
 372 250 330 296 266 296 c 2
 192 296 l 1
 192 109 l 1
 213 106 231 105 250 105 c 0xba
EndSplineSet
EndChar

StartChar: uni0043
Encoding: 304 67 162
Width: 550
Flags: W
HStem: -15 117<271 337.5> 575 115<266.5 330>
VStem: 30 140<260 414.5 260 455>
LayerCount: 2
Back
Fore
SplineSet
480 160 m 1
 527 60 l 1
 447 8 371 -15 304 -15 c 0
 144 -15 30 108 30 335 c 0
 30 575 165 690 307 690 c 0
 423 690 510 629 541 514 c 1
 412 484 l 1
 391 547 354 575 306 575 c 0
 227 575 170 493 170 336 c 0
 170 184 225 102 317 102 c 0
 362 102 418 122 480 160 c 1
EndSplineSet
EndChar

StartChar: uni0044
Encoding: 305 68 163
Width: 581
Flags: W
HStem: -3 112<253 253> 0 21G<60 60> 566 112<192 256 192 256> 655 20G<60 60>
VStem: 60 132<109 566 109 675 109 675> 413 140<271 392>
LayerCount: 2
Back
Fore
SplineSet
256 678 m 2xac
 480 682 553 522 553 336 c 0
 553 140 466 -7 253 -3 c 2xac
 60 0 l 1
 60 675 l 1x5c
 256 678 l 2xac
254 109 m 2
 380 109 413 207 413 335 c 0
 413 449 381 566 256 566 c 2
 192 566 l 1
 192 109 l 1
 254 109 l 2
EndSplineSet
EndChar

StartChar: uni0045
Encoding: 306 69 164
Width: 481
Flags: W
HStem: 0 110<192 431 192 431> 293 108<192 393 192 393> 565 110<192 422 192 192>
VStem: 60 132<110 110 110 293 401 565>
LayerCount: 2
Back
Fore
SplineSet
192 110 m 1
 431 110 l 1
 431 0 l 1
 60 0 l 1
 60 675 l 1
 422 675 l 1
 422 565 l 1
 192 565 l 1
 192 401 l 1
 393 401 l 1
 393 293 l 1
 192 293 l 1
 192 110 l 1
EndSplineSet
EndChar

StartChar: uni0046
Encoding: 307 70 165
Width: 450
Flags: W
HStem: 0 21G<60 192 60 60> 282 108<192 386 192 386> 565 110<192 415 192 192>
VStem: 60 132<0 282 390 565>
LayerCount: 2
Back
Fore
SplineSet
415 565 m 1
 192 565 l 1
 192 390 l 1
 386 390 l 1
 386 282 l 1
 192 282 l 1
 192 0 l 1
 60 0 l 1
 60 675 l 1
 415 675 l 1
 415 565 l 1
EndSplineSet
EndChar

StartChar: uni0047
Encoding: 308 71 166
Width: 584
Flags: W
HStem: -15 115<278 340.5 278 344> 244 110<300 541 300 409> 576 115<265 333.5>
VStem: 30 140<256 415.5 256 455> 409 132<114 244 244 244>
LayerCount: 2
Back
Fore
SplineSet
300 244 m 1
 300 354 l 1
 541 354 l 1
 541 39 l 1
 458 -1 376 -15 312 -15 c 0
 137 -15 30 106 30 335 c 0
 30 575 160 691 309 691 c 0
 419 691 510 631 542 514 c 1
 417 484 l 1
 396 544 359 576 308 576 c 0
 222 576 170 495 170 336 c 0
 170 176 228 100 328 100 c 0
 353 100 380 105 409 114 c 1
 409 244 l 1
 300 244 l 1
EndSplineSet
EndChar

StartChar: uni0048
Encoding: 309 72 167
Width: 607
Flags: W
HStem: 0 21G<60 192 60 60 415 547 415 415> 291 110<192 415 192 415> 655 20G<60 192 192 192 415 547 547 547>
VStem: 60 132<0 291 0 401 401 675> 415 132<0 291 291 291 401 675 0 675>
LayerCount: 2
Back
Fore
SplineSet
415 675 m 1
 547 675 l 1
 547 0 l 1
 415 0 l 1
 415 291 l 1
 192 291 l 1
 192 0 l 1
 60 0 l 1
 60 675 l 1
 192 675 l 1
 192 401 l 1
 415 401 l 1
 415 675 l 1
EndSplineSet
EndChar

StartChar: uni0049
Encoding: 310 73 168
Width: 252
Flags: W
HStem: 0 21G<60 192 60 60> 655 20G<60 192 192 192>
VStem: 60 132<0 675 0 675>
LayerCount: 2
Back
Fore
SplineSet
192 675 m 1
 192 0 l 1
 60 0 l 1
 60 675 l 1
 192 675 l 1
EndSplineSet
EndChar

StartChar: uni004A
Encoding: 311 74 169
Width: 309
Flags: W
HStem: -15 110<90 103 81 150> 655 20G<132 264 264 264>
VStem: 132 132<161 675>
LayerCount: 2
Back
Fore
SplineSet
-4 13 m 1
 23 114 l 1
 50 101 72 95 90 95 c 0
 116 95 132 116 132 161 c 2
 132 675 l 1
 264 675 l 1
 264 151 l 2
 264 43 192 -15 108 -15 c 0
 72 -15 34 -6 -4 13 c 1
EndSplineSet
EndChar
